<?xml version="1.0" encoding="UTF-8" standalone="no"?>
<svg
   xmlns="http://www.w3.org/2000/svg"
   id="web-screenshot"
   viewBox="0 0 32 32"
   version="1.1"
   width="32"
   height="32">
  <g
     id="layer1"
     transform="translate(-3.1255,-0.84584)">
    <rect
       style="fill:#ff0808;stroke-width:0.063935;fill-opacity:1"
       ry="1.023442"
       height="3.9967685"
       width="5.1682758"
       y="4.9565187"
       x="7.4854999" />
    <rect
       style="fill:#ffab2d;stroke-width:0.063935;fill-opacity:1"
       ry="2.4123993"
       height="21.426743"
       width="30"
       y="7.3084188"
       x="4.1255007" />
    <g>
      <ellipse
         style="fill:#ff0909;stroke:#000000;stroke-width:0.399593;fill-opacity:1"
         cx="19.1255"
         cy="18.02179"
         rx="8.0665388"
         ry="7.6884193" />
      <ellipse
         style="fill:#8b4d41;stroke-width:0.0456199"
         cx="19.000067"
         cy="18.021824"
         rx="5.5961838"
         ry="5.2464137" />
      <path
         d="m 18.99951,12.779608 c -3.090795,0 -5.59238,2.34763 -5.59238,5.245287 0,0.395341 0.04866,0.77188 0.137069,1.14222 0.88206,0.643686 1.984746,1.032565 3.189045,1.032565 2.875346,0 5.208443,-2.183996 5.208443,-4.879772 0,-0.709596 -0.166435,-1.383752 -0.456894,-1.992057 -0.749686,-0.349607 -1.591364,-0.548272 -2.485502,-0.548272 z"
         style="opacity:0.43805;fill:#cccccc;stroke-width:0.185411" />
      <ellipse
         style="fill:none;stroke:#000000;stroke-width:0.273909"
         cx="19.125443"
         cy="18.021988"
         rx="5.5293703"
         ry="5.2701812" />
      <path
         d="m 24.080169,17.622537 -0.712756,0.25586 c -0.05456,0.449116 -0.175532,0.878289 -0.347242,1.279303 l 0.868118,0.264998 c 0.136088,-0.44046 0.210169,-0.903787 0.210169,-1.388957 0,-0.139791 -0.0063,-0.274604 -0.01827,-0.411189 z m -1.270183,1.973781 c -0.291825,0.523125 -0.681317,0.985428 -1.142159,1.36147 l 0.694477,0.73103 c 0.563072,-0.459554 1.013207,-1.04739 1.315854,-1.71792 l -0.868112,-0.374639 z"
         style="color:#000000;fill:#cccccc;stroke-width:0.185411" />
    </g>
  </g>
</svg>
